<?xml version="1.0" encoding="UTF-8"?>
<svg xmlns="http://www.w3.org/2000/svg" viewBox="0 0 500 500">
  <defs>
    <style>
      .cls-1 {
        fill: #fff;
      }

      .cls-2 {
        fill: #333;
      }
    </style>
  </defs>
  <g id="Layer_2" data-name="Layer 2">
    <g>
      <rect class="cls-1" x=".5" y=".5" width="499" height="499"/>
      <path d="M499,1v498H1V1h498M500,0H0v500h500V0h0Z"/>
    </g>
  </g>
  <g id="Layer_1" data-name="Layer 1">
    <g>
      <path class="cls-2" d="M121.83,297.71l-11.31-21.18v18.82c0,.46.1.82.31,1.06s.58.43,1.12.58v.72h-9.01v-.72c.54-.15.91-.34,1.12-.58s.31-.59.31-1.06v-25.96c0-.45-.1-.79-.31-1.03s-.58-.43-1.12-.58v-.72h11.82v.72c-.7.18-1.06.59-1.06,1.24,0,.3.1.64.31,1.03l8.36,15.85,8.48-15.58c.37-.69.56-1.19.56-1.5,0-.61-.37-.96-1.12-1.03v-.72h11.59v.72c-.54.15-.91.34-1.12.58s-.31.58-.31,1.03v25.96c0,.46.1.82.31,1.06s.58.43,1.12.58v.72h-9.57v-.72c.52-.13.89-.33,1.11-.57s.33-.6.33-1.07v-18.82l-11.94,21.18Z"/>
      <path class="cls-2" d="M174.46,289.89h-13.94l-2.06,4.31c-.28.6-.43,1.07-.43,1.42,0,.66.5,1.12,1.5,1.37v.72h-10.14v-.72c.6-.12,1.06-.33,1.37-.63s.67-.88,1.08-1.75l11.28-23.56c.36-.75.54-1.35.54-1.8,0-.69-.43-1.18-1.3-1.48v-.72h10.87v.72c-.88.25-1.33.7-1.33,1.33,0,.43.14.93.43,1.48l11.68,23.63c.49,1,.93,1.69,1.3,2.06s.88.61,1.5.73v.72h-11.29v-.72c.99-.16,1.49-.63,1.49-1.39,0-.31-.15-.78-.45-1.39l-2.11-4.31ZM172.53,285.69l-4.97-10.92-5.05,10.92h10.02Z"/>
      <path class="cls-2" d="M206.8,272.1v23.25c0,.46.1.82.31,1.06s.58.43,1.12.58v.72h-9.57v-.72c.54-.15.91-.34,1.12-.58s.31-.59.31-1.06v-23.25h-9.52c-.45,0-.79.1-1.03.31-.24.21-.43.58-.58,1.13h-.72v-7.93h.72c.16.55.36.92.6,1.13.23.21.57.31,1.02.31h25.72c.46,0,.82-.1,1.06-.31.24-.21.43-.58.58-1.13h.72v7.93h-.72c-.15-.55-.34-.92-.58-1.13-.24-.2-.59-.31-1.06-.31h-9.5Z"/>
      <path class="cls-2" d="M220.05,296.54l2.88-7.77.67.25c-.01.18-.02.33-.02.45,0,.61.38,1.18,1.15,1.71.81.52,1.89.97,3.25,1.33s2.65.54,3.9.54c2.01,0,3.47-.46,4.38-1.37.46-.46.78-1.01.94-1.65s.25-1.6.25-2.89v-17.72c0-.46-.1-.82-.31-1.06s-.58-.43-1.12-.58v-.72h9.57v.72c-.54.15-.91.34-1.12.58s-.31.59-.31,1.06v18.06c0,2.96-.41,5.11-1.24,6.42-.87,1.39-2.16,2.47-3.86,3.22s-3.7,1.13-5.97,1.13c-1.3,0-2.43-.09-3.39-.26s-2.52-.58-4.69-1.22c-1.35-.39-2.31-.58-2.88-.58-.49,0-.95.21-1.37.63l-.67-.27Z"/>
      <path class="cls-2" d="M256.52,295.35v-25.96c0-.45-.1-.79-.31-1.03s-.58-.43-1.12-.58v-.72h9.57v.72c-.54.13-.91.33-1.12.57s-.31.6-.31,1.04v25.96c0,.46.11.82.33,1.07s.59.44,1.11.57v.72h-9.57v-.72c.54-.15.91-.34,1.12-.58s.31-.59.31-1.06Z"/>
      <path class="cls-2" d="M347.02,286.68h-7.57c-.46,0-.81.1-1.04.31s-.42.58-.57,1.12h-.72v-7.14h.72c.15.55.34.93.57,1.13.23.2.58.3,1.04.3h14.53v.72c-.53.15-.9.34-1.12.58s-.32.59-.32,1.06v6.29c0,.46.1.82.31,1.06.21.24.58.43,1.13.58v.56c-5.82,3.32-11.46,4.99-16.92,4.99-4.95,0-8.99-1.18-12.12-3.53-3.94-2.96-5.9-7.08-5.9-12.35,0-4.91,1.75-8.82,5.26-11.72,3.32-2.76,7.74-4.13,13.25-4.13,1.75,0,3.4.16,4.95.48s3.31.86,5.29,1.63c1.02.4,1.74.61,2.18.61.31,0,.68-.17,1.1-.52l.63.34-3.6,7.34-.65-.34c-.01-.49-.08-.85-.2-1.06-.12-.22-.39-.48-.81-.79-.91-.69-2.25-1.27-4.02-1.75-1.77-.48-3.44-.73-5.01-.73-3.2,0-5.86.9-7.97,2.69-2.38,2.03-3.57,4.72-3.57,8.06s1.16,5.84,3.48,7.83c2.13,1.82,4.93,2.74,8.4,2.74,1.69,0,3.36-.19,5.01-.58s3.07-.92,4.27-1.59v-4.18Z"/>
      <path class="cls-2" d="M302.13,281.65c3.44,1.3,5.17,3.71,5.17,7.23,0,2.8-1,4.99-3.01,6.58-1.02.79-2.2,1.37-3.54,1.72s-3,.53-4.98.53h-20.96v-.72c.54-.15.91-.34,1.12-.58s.31-.59.31-1.06v-25.94c0-.46-.1-.82-.31-1.06s-.58-.43-1.12-.58v-.72h20.75c1.99,0,3.59.15,4.81.45s2.28.81,3.19,1.53c1.81,1.42,2.72,3.47,2.72,6.15,0,2.99-1.39,5.15-4.16,6.47ZM282.95,279.25h11.75c1.78,0,3.02-.26,3.73-.79.79-.6,1.19-1.53,1.19-2.79s-.37-2.2-1.12-2.75-2.01-.82-3.8-.82h-11.75v7.14ZM282.95,292.65h11.37c2.11,0,3.63-.29,4.56-.88,1.06-.67,1.59-1.77,1.59-3.3s-.53-2.61-1.59-3.3c-.91-.58-2.43-.88-4.56-.88h-11.37v8.36Z"/>
      <path class="cls-2" d="M377.45,266.51c5.35,0,9.59,1.44,12.72,4.33,3.31,3.02,4.97,6.93,4.97,11.72,0,2.93-.79,5.68-2.38,8.22-3.1,4.97-8.19,7.46-15.26,7.46-5.3,0-9.52-1.44-12.65-4.33-1.68-1.54-2.95-3.39-3.82-5.55-.76-1.9-1.15-3.9-1.15-6,0-3.07.79-5.88,2.36-8.42,3.01-4.87,8.08-7.34,15.22-7.43ZM377.47,271.72c-2.92,0-5.36.87-7.31,2.6-2.31,2.05-3.46,4.73-3.46,8.06s1.15,6.01,3.46,8.06c1.95,1.74,4.4,2.6,7.35,2.6s5.4-.87,7.33-2.6c1.15-1.03,2.04-2.3,2.65-3.79.54-1.33.81-2.71.81-4.13,0-3.47-1.15-6.2-3.46-8.19-1.96-1.71-4.42-2.57-7.37-2.6Z"/>
    </g>
    <g>
      <path class="cls-2" d="M123.96,323.54v-4.37l-3.86-6.97h2.15l2.71,5.2,2.7-5.2h2.15l-3.87,6.97v4.37h-1.98Z"/>
      <path class="cls-2" d="M136.58,323.69c-1.19,0-2.19-.24-3-.73s-1.42-1.16-1.84-2.03-.62-1.89-.62-3.05.21-2.18.62-3.05,1.03-1.55,1.84-2.04,1.81-.73,3-.73,2.18.24,2.99.73c.8.49,1.42,1.17,1.84,2.04.42.87.63,1.89.63,3.05s-.21,2.18-.63,3.05c-.42.87-1.03,1.55-1.84,2.03-.81.49-1.8.73-2.99.73ZM136.58,322.09c.82,0,1.48-.19,1.99-.57s.88-.89,1.11-1.53c.24-.64.35-1.34.35-2.11s-.12-1.49-.35-2.13-.61-1.15-1.11-1.53c-.51-.38-1.17-.57-1.99-.57s-1.49.19-2,.57c-.51.38-.88.89-1.11,1.53s-.35,1.35-.35,2.13.12,1.47.35,2.11c.23.64.6,1.15,1.11,1.53s1.18.57,2,.57Z"/>
      <path class="cls-2" d="M149.67,323.69c-1.09,0-1.98-.18-2.67-.55s-1.19-.89-1.51-1.56-.48-1.48-.48-2.41v-6.97h1.98v6.86c0,1.06.22,1.82.67,2.3.45.48,1.12.72,2.02.72s1.57-.24,2.01-.72.66-1.24.66-2.3v-6.86h1.99v6.97c0,.93-.16,1.73-.48,2.41-.32.68-.83,1.2-1.51,1.56s-1.58.55-2.67.55Z"/>
      <path class="cls-2" d="M157.9,323.54v-11.34h4.47c.69,0,1.31.1,1.87.31s1,.54,1.33.99c.33.45.49,1.04.49,1.77s-.2,1.33-.59,1.84-.98.85-1.76,1.04c.45.07.82.22,1.1.43s.51.5.69.87c.18.36.34.81.48,1.35l.75,2.75h-2.01l-.59-2.4c-.11-.48-.24-.88-.4-1.2-.15-.32-.35-.57-.61-.73s-.6-.24-1.03-.24h-2.26v4.57h-1.94ZM159.83,317.37h2.24c.39,0,.74-.07,1.04-.21s.54-.34.71-.61.26-.59.26-.96c0-.57-.17-1-.51-1.31-.34-.3-.81-.45-1.41-.45h-2.33v3.55Z"/>
      <path class="cls-2" d="M173.81,323.54v-11.34h7.24v1.62h-5.3v3.13h4.77v1.56h-4.77v5.03h-1.94Z"/>
      <path class="cls-2" d="M181.92,323.54l4.17-11.34h2.04l4.14,11.34h-2.01l-.94-2.83h-4.4l-.99,2.83h-2ZM185.4,319.09h3.4l-1.7-4.96-1.7,4.96Z"/>
      <path class="cls-2" d="M196.5,323.54l-3.97-11.34h2.08l3.05,9.33,3.08-9.33h2.07l-4.03,11.34h-2.29Z"/>
      <path class="cls-2" d="M209.71,323.69c-1.19,0-2.19-.24-3-.73s-1.42-1.16-1.84-2.03-.62-1.89-.62-3.05.21-2.18.62-3.05,1.03-1.55,1.84-2.04,1.81-.73,3-.73,2.18.24,2.99.73c.8.49,1.42,1.17,1.84,2.04.42.87.63,1.89.63,3.05s-.21,2.18-.63,3.05c-.42.87-1.03,1.55-1.84,2.03-.81.49-1.8.73-2.99.73ZM209.71,322.09c.82,0,1.48-.19,1.99-.57s.88-.89,1.11-1.53c.24-.64.35-1.34.35-2.11s-.12-1.49-.35-2.13-.61-1.15-1.11-1.53c-.51-.38-1.17-.57-1.99-.57s-1.49.19-2,.57c-.51.38-.88.89-1.11,1.53s-.35,1.35-.35,2.13.12,1.47.35,2.11c.23.64.6,1.15,1.11,1.53s1.18.57,2,.57Z"/>
      <path class="cls-2" d="M218.33,323.54v-11.34h4.47c.69,0,1.31.1,1.87.31s1,.54,1.33.99c.33.45.49,1.04.49,1.77s-.2,1.33-.59,1.84-.98.85-1.76,1.04c.45.07.82.22,1.1.43s.51.5.69.87c.18.36.34.81.48,1.35l.75,2.75h-2.01l-.59-2.4c-.11-.48-.24-.88-.4-1.2-.15-.32-.35-.57-.61-.73s-.6-.24-1.03-.24h-2.26v4.57h-1.94ZM220.27,317.37h2.24c.39,0,.74-.07,1.04-.21s.54-.34.71-.61.26-.59.26-.96c0-.57-.17-1-.51-1.31-.34-.3-.81-.45-1.41-.45h-2.33v3.55Z"/>
      <path class="cls-2" d="M229.89,323.54v-11.34h1.94v11.34h-1.94Z"/>
      <path class="cls-2" d="M237.39,323.54v-9.71h-3.12v-1.63h8.18v1.63h-3.11v9.71h-1.95Z"/>
      <path class="cls-2" d="M244.88,323.54v-11.34h7.41v1.62h-5.47v3.12h5v1.57h-5v3.41h5.47v1.62h-7.41Z"/>
      <path class="cls-2" d="M259.85,323.54v-11.34h4.47c.69,0,1.31.1,1.87.31s1,.54,1.33.99c.33.45.49,1.04.49,1.77s-.2,1.33-.59,1.84-.98.85-1.76,1.04c.45.07.82.22,1.1.43s.51.5.69.87c.18.36.34.81.48,1.35l.75,2.75h-2.01l-.59-2.4c-.11-.48-.24-.88-.4-1.2-.15-.32-.35-.57-.61-.73-.25-.16-.6-.24-1.03-.24h-2.26v4.57h-1.94ZM261.79,317.37h2.24c.39,0,.74-.07,1.04-.21s.54-.34.71-.61c.18-.27.26-.59.26-.96,0-.57-.17-1-.51-1.31-.34-.3-.81-.45-1.41-.45h-2.33v3.55Z"/>
      <path class="cls-2" d="M271.4,323.54v-11.34h7.41v1.62h-5.47v3.12h5v1.57h-5v3.41h5.47v1.62h-7.41Z"/>
      <path class="cls-2" d="M285.67,323.69c-.84,0-1.59-.12-2.26-.37-.67-.25-1.2-.63-1.6-1.16s-.59-1.22-.59-2.07h1.97c.01.52.13.92.35,1.22s.53.51.91.63c.38.12.8.19,1.26.19s.83-.06,1.18-.18c.35-.12.63-.3.83-.55s.31-.56.31-.93c0-.35-.09-.63-.25-.86s-.45-.42-.85-.59c-.4-.17-.95-.35-1.64-.54-.81-.22-1.5-.46-2.06-.73s-.99-.61-1.28-1.02c-.29-.41-.43-.94-.43-1.59,0-.69.17-1.26.5-1.71s.79-.79,1.39-1.02,1.29-.34,2.09-.34,1.45.12,2.08.35c.63.23,1.13.59,1.5,1.07s.56,1.08.56,1.8h-1.97c0-.56-.21-.98-.63-1.27-.42-.28-.94-.42-1.55-.42s-1.1.12-1.47.36c-.37.24-.55.6-.55,1.07,0,.28.08.51.24.71.16.2.44.38.84.55s.98.36,1.71.56c.86.24,1.57.5,2.12.77s.96.63,1.22,1.06c.27.43.4,1,.4,1.7,0,.76-.19,1.39-.57,1.88s-.9.85-1.55,1.09-1.39.35-2.21.35Z"/>
      <path class="cls-2" d="M294.46,323.54v-9.71h-3.13v-1.63h8.18v1.63h-3.11v9.71h-1.95Z"/>
      <path class="cls-2" d="M299.76,323.54l4.17-11.34h2.04l4.14,11.34h-2.01l-.94-2.83h-4.39l-.99,2.83h-2ZM303.23,319.09h3.4l-1.7-4.96-1.7,4.96Z"/>
      <path class="cls-2" d="M316.65,323.69c-1.09,0-1.98-.18-2.67-.55-.69-.36-1.19-.89-1.51-1.56s-.48-1.48-.48-2.41v-6.97h1.98v6.86c0,1.06.22,1.82.67,2.3.45.48,1.12.72,2.02.72s1.57-.24,2.01-.72c.44-.48.66-1.24.66-2.3v-6.86h1.99v6.97c0,.93-.16,1.73-.48,2.41s-.83,1.2-1.51,1.56-1.57.55-2.67.55Z"/>
      <path class="cls-2" d="M324.87,323.54v-11.34h4.47c.69,0,1.31.1,1.87.31.56.21,1,.54,1.33.99.33.45.49,1.04.49,1.77s-.19,1.33-.59,1.84-.98.85-1.76,1.04c.45.07.82.22,1.1.43s.51.5.69.87c.18.36.33.81.48,1.35l.75,2.75h-2.01l-.59-2.4c-.11-.48-.25-.88-.4-1.2-.15-.32-.35-.57-.61-.73s-.6-.24-1.03-.24h-2.26v4.57h-1.94ZM326.81,317.37h2.24c.39,0,.74-.07,1.04-.21.3-.14.54-.34.71-.61s.26-.59.26-.96c0-.57-.17-1-.51-1.31-.34-.3-.81-.45-1.41-.45h-2.33v3.55Z"/>
      <path class="cls-2" d="M335,323.54l4.17-11.34h2.04l4.13,11.34h-2.01l-.94-2.83h-4.4l-.98,2.83h-2ZM338.48,319.09h3.4l-1.7-4.96-1.7,4.96Z"/>
      <path class="cls-2" d="M347.68,323.54v-11.34h1.93l5.72,8.33v-8.33h1.83v11.34h-1.93l-5.73-8.36v8.36h-1.82Z"/>
      <path class="cls-2" d="M362.72,323.54v-9.71h-3.13v-1.63h8.18v1.63h-3.11v9.71h-1.94Z"/>
      <path class="cls-2" d="M373.65,323.69c-.84,0-1.59-.12-2.26-.37-.67-.25-1.2-.63-1.6-1.16s-.59-1.22-.59-2.07h1.97c.01.52.13.92.35,1.22s.53.51.91.63c.38.12.8.19,1.26.19s.83-.06,1.18-.18c.35-.12.63-.3.83-.55.21-.25.31-.56.31-.93,0-.35-.08-.63-.25-.86s-.45-.42-.85-.59c-.4-.17-.95-.35-1.64-.54-.82-.22-1.5-.46-2.06-.73s-.99-.61-1.28-1.02c-.29-.41-.43-.94-.43-1.59,0-.69.16-1.26.5-1.71s.79-.79,1.39-1.02c.59-.22,1.29-.34,2.09-.34.76,0,1.45.12,2.08.35.63.23,1.13.59,1.5,1.07s.57,1.08.57,1.8h-1.97c0-.56-.2-.98-.63-1.27-.42-.28-.94-.42-1.54-.42s-1.1.12-1.47.36c-.37.24-.55.6-.55,1.07,0,.28.08.51.24.71.16.2.44.38.84.55s.97.36,1.71.56c.86.24,1.57.5,2.12.77s.96.63,1.22,1.06c.26.43.39,1,.39,1.7,0,.76-.19,1.39-.57,1.88s-.9.85-1.55,1.09-1.39.35-2.21.35Z"/>
    </g>
    <g>
      <path class="cls-2" d="M249.04,342.96c10.57,0,19.17,8.6,19.17,19.17s-8.6,19.17-19.17,19.17-19.17-8.6-19.17-19.17,8.6-19.17,19.17-19.17M249.04,339.12c-12.7,0-23,10.3-23,23s10.3,23,23,23,23-10.3,23-23-10.3-23-23-23h0Z"/>
      <path class="cls-2" d="M214.54,342.93h-86.25c-1.04,0-1.89-.85-1.89-1.89s.85-1.89,1.89-1.89h86.25c1.04,0,1.89.85,1.89,1.89s-.85,1.89-1.89,1.89Z"/>
      <path class="cls-2" d="M369.79,342.93h-86.25c-1.04,0-1.89-.85-1.89-1.89s.85-1.89,1.89-1.89h86.25c1.04,0,1.89.85,1.89,1.89s-.85,1.89-1.89,1.89Z"/>
      <path class="cls-2" d="M259.58,358.82c0,1.49-.52,2.97-1.56,4.16-.09.11-.2.23-.31.33l-8.32,8.32c-.2.2-.52.2-.72,0l-8.32-8.32c-.11-.11-.21-.22-.31-.33-2.17-2.5-2.07-6.29.31-8.67,1.24-1.24,2.87-1.86,4.5-1.86,1.44,0,2.88.49,4.06,1.46.07.06.17.06.24,0,2.5-2.08,6.22-1.94,8.56.4,1.24,1.24,1.86,2.87,1.86,4.5Z"/>
      <circle class="cls-2" cx="285.46" cy="365.96" r="1.92"/>
      <circle class="cls-2" cx="302.23" cy="365.96" r="1.92"/>
      <circle class="cls-2" cx="319" cy="365.96" r="1.92"/>
      <circle class="cls-2" cx="335.77" cy="365.96" r="1.92"/>
      <circle class="cls-2" cx="162.31" cy="365.96" r="1.92"/>
      <circle class="cls-2" cx="179.08" cy="365.96" r="1.92"/>
      <circle class="cls-2" cx="195.85" cy="365.96" r="1.92"/>
      <circle class="cls-2" cx="212.62" cy="365.96" r="1.92"/>
    </g>
    <g>
      <g>
        <path class="cls-2" d="M214.54,250.93h-103.5c-1.04,0-1.89-.85-1.89-1.89s.85-1.89,1.89-1.89h103.5c1.04,0,1.89.85,1.89,1.89s-.85,1.89-1.89,1.89Z"/>
        <path class="cls-2" d="M387.04,250.93h-103.5c-1.04,0-1.89-.85-1.89-1.89s.85-1.89,1.89-1.89h103.5c1.04,0,1.89.85,1.89,1.89s-.85,1.89-1.89,1.89Z"/>
      </g>
      <g>
        <path class="cls-2" d="M249.04,114.88c35.93,0,65.17,29.23,65.17,65.17s-29.23,65.17-65.17,65.17-65.17-29.23-65.17-65.17,29.23-65.17,65.17-65.17M249.04,111.04c-38.11,0-69,30.89-69,69s30.89,69,69,69,69-30.89,69-69-30.89-69-69-69h0Z"/>
        <path class="cls-2" d="M249.04,129.25c28.01,0,50.79,22.79,50.79,50.79s-22.79,50.79-50.79,50.79-50.79-22.79-50.79-50.79,22.79-50.79,50.79-50.79M249.04,128.29c-28.58,0-51.75,23.17-51.75,51.75s23.17,51.75,51.75,51.75,51.75-23.17,51.75-51.75-23.17-51.75-51.75-51.75h0Z"/>
        <path class="cls-2" d="M264.96,162.08c0-9.66-8.15-17.41-17.95-16.75-8.39.57-15.15,7.44-15.59,15.84-.19,3.68.8,7.11,2.62,9.95h0l13.12,22.3c.26.44.89.45,1.16.02l14-22.31h0c1.67-2.61,2.65-5.71,2.65-9.05ZM248.18,173.42c-6.26,0-11.34-5.08-11.34-11.34s5.08-11.34,11.34-11.34,11.34,5.08,11.34,11.34-5.08,11.34-11.34,11.34Z"/>
        <path class="cls-2" d="M282.1,199.97l-9.06-19.46c-1.19-2.55-3.7-4.19-6.41-4.19h-2.41c-.09,0-.17.05-.22.12l-2.94,4.68c-.11.17.02.4.22.4h5.34c.71,0,1.36.45,1.7,1.19l9.06,19.46c.37.79.31,1.7-.15,2.43-.22.34-.71.91-1.55.91h-53.3c-.84,0-1.33-.57-1.55-.91-.46-.73-.52-1.64-.15-2.43l9.06-19.46c.34-.73.99-1.19,1.7-1.19h5.07c.2,0,.33-.22.22-.39l-2.75-4.68c-.05-.08-.13-.13-.22-.13h-2.32c-2.71,0-5.22,1.64-6.41,4.19l-9.06,19.46c-1.12,2.41-.94,5.19.48,7.42,1.32,2.08,3.54,3.32,5.93,3.32h53.3c2.39,0,4.61-1.24,5.93-3.32,1.42-2.23,1.6-5.01.48-7.42Z"/>
        <path class="cls-2" d="M162.79,172.38h-1.92c-5.29,0-9.58-4.29-9.58-9.58v-24.92c0-1.06.86-1.92,1.92-1.92h0c1.06,0,1.92.86,1.92,1.92v24.92c0,3.18,2.57,5.75,5.75,5.75h1.92c3.18,0,5.75-2.57,5.75-5.75v-24.92c0-1.06.86-1.92,1.92-1.92h0c1.06,0,1.92.86,1.92,1.92v24.92c0,5.29-4.29,9.58-9.58,9.58Z"/>
        <path class="cls-2" d="M161.83,231.79h0c-1.35,0-2.45-1.1-2.43-2.46l.53-58.91c0-1.05.86-1.89,1.91-1.89h0c1.05,0,1.9.84,1.91,1.89l.53,58.91c.01,1.35-1.08,2.46-2.43,2.46Z"/>
        <rect class="cls-2" x="159.92" y="135.96" width="3.83" height="30.67" rx="1.92" ry="1.92"/>
        <path class="cls-2" d="M336.25,231.79h0c-1.35,0-2.45-1.1-2.43-2.46l.53-58.91c0-1.05.86-1.89,1.91-1.89h0c1.05,0,1.9.84,1.91,1.89l.53,58.91c.01,1.35-1.08,2.46-2.43,2.46Z"/>
        <path class="cls-2" d="M336.25,135c-7.07,0-12.46,13.82-12.46,20.74,0,7.33,5.82,13.76,12.46,13.76s12.46-6.43,12.46-13.76c0-6.92-5.39-20.74-12.46-20.74Z"/>
      </g>
    </g>
  </g>
</svg>